# xmcd
#
# Track frame offsets:
#	150
#	14906
#	33822
#	75621
#	99775
#	128061
#	152582
#	174013
#	205557
#	227970
#	267212
#	286418
#	306956
#	320611
#
# Disc length: 4624 seconds
#
# Revision: 1
# Processed by: cddbd v1.5.2PL0 Copyright (c) Steve Scherf et al.
# Submitted via: audiograbber 1.83.01
#
DISCID=ac120e0e
DTITLE=Jimmy Smith - At The Organ
DYEAR=1900
DGENRE=blues
TTITLE0=Peters Theme
TTITLE1=1st Movement Portuguese Soul
TTITLE2=Paid In Full
TTITLE3=Cat In A Tree
TTITLE4=Can Get Enough
TTITLE5=Blues And The Abstract Truth
TTITLE6=Finale Parade  Peter Plays Some Blues
TTITLE7=I Got Mine
TTITLE8=Makin 27 Whoppee
TTITLE9=Open House   Part One
TTITLE10=Step Right Up
TTITLE11=Theme From The Man With The Golden Arm
TTITLE12=With Oliver Nelson Orchestra - Go Away Little Girl
TTITLE13=Mr. Johnson By Jimmy Smith - Dr. John
EXTD=
EXTT0=
EXTT1=
EXTT2=
EXTT3=
EXTT4=
EXTT5=
EXTT6=
EXTT7=
EXTT8=
EXTT9=
EXTT10=
EXTT11=
EXTT12=
EXTT13=
PLAYORDER=
